<svg width="16" height="16" viewBox="0 0 16 16" fill="none" xmlns="http://www.w3.org/2000/svg">
<path d="M9.98148 2.34864C8.40204 2.36395 6.71929 3.00101 5.29104 4.62501C4.97129 4.92658 4.66979 5.2372 4.37895 5.54105C3.73782 6.21083 3.13851 6.8497 2.49707 7.30567C1.91945 7.71636 1.31801 7.9812 0.59082 8.01661V10.8252C2.27613 9.80045 2.46376 8.70548 4.20316 6.56548C4.40254 6.36161 4.60088 6.1533 4.80082 5.94439C5.11207 5.61917 5.42632 5.2943 5.75591 4.98636C7.2066 3.83542 8.6316 4.11355 9.10648 5.06448C9.25023 3.5248 10.9177 4.10936 11.1944 5.65433C11.4103 4.60133 11.8296 4.26826 12.2578 4.66605C11.3786 6.21558 11.4263 8.13073 11.9951 9.82033C12.6361 11.7239 13.9246 13.3869 15.4434 14V13.3574C14.2453 12.7576 13.1102 11.304 12.5479 9.6338C12.0498 8.15455 11.9923 6.53786 12.6338 5.20708C12.8992 5.73583 13.1445 6.56351 13.3194 7.69239C13.8817 5.04905 15.0307 5.42792 15.0889 7.36136C16.4326 5.28989 13.4578 2.31508 9.98148 2.34864ZM8.86723 5.34176C6.06957 5.67783 2.06748 11.239 1.36332 15.4678H4.21488C4.24676 11.2818 6.4372 6.65389 8.86723 5.34176ZM9.87991 5.76958C7.48116 7.30258 6.29948 12.2925 6.44829 15.4678H8.89945C7.61154 12.9447 8.17423 7.57198 9.87995 5.76951L9.87991 5.76958ZM10.5635 6.58889C9.47957 9.15858 9.76023 12.56 11.3497 15.4678H13.7872C11.4245 13.7874 10.0344 9.51608 10.5635 6.58886L10.5635 6.58889Z" fill="white"/>
</svg>
