<svg width="16" height="16" viewBox="0 0 16 16" fill="none" xmlns="http://www.w3.org/2000/svg">
<path d="M15.0688 2.07407C13.1063 2.78063 10.7094 3.87188 8.21564 5.075H12.75C13.7281 4.08125 14.4688 3.01188 15.0688 2.07407ZM15.3531 2.665C14.45 4.05313 13.2188 5.69063 11.3688 6.97813C9.26876 8.44063 6.37501 9.425 2.34314 9.06875C2.41158 10.8 3.24689 12.1125 4.46564 13.5594C10.2344 11.6156 12.8031 9.57188 14.0281 7.58438C15.0406 5.9375 15.15 4.29063 15.3531 2.665ZM7.06251 5.6375C6.76564 5.78438 6.46564 5.93125 6.16876 6.07813H11.6375C11.8188 5.93438 11.9906 5.7875 12.1594 5.6375H7.06251ZM5.03751 6.64063C3.99689 7.1625 2.96908 7.67813 1.9672 8.18438C1.97533 8.1875 1.98345 8.19375 1.99126 8.19688C2.11939 8.27188 2.2372 8.375 2.31126 8.50625C6.15626 8.86875 8.86876 7.975 10.8688 6.64063H5.03751ZM1.23658 8.57813C1.0397 8.57813 0.865015 8.62813 0.760952 8.6875C0.65689 8.74688 0.647827 8.79063 0.647827 8.79375C0.647827 8.79688 0.65689 8.84063 0.760952 8.9C0.865015 8.95938 1.0397 9.00938 1.23658 9.00938C1.43345 9.00938 1.60814 8.95938 1.7122 8.9C1.81626 8.84063 1.82533 8.79688 1.82533 8.79375C1.82533 8.79063 1.81626 8.74688 1.7122 8.6875C1.60814 8.62813 1.43345 8.57813 1.23658 8.57813ZM1.8097 9.475C1.63783 9.5375 1.44345 9.57188 1.23658 9.57188C1.10126 9.57188 0.971577 9.55625 0.849702 9.52813C0.926265 10.4063 1.25064 11.4063 1.6847 12.225C1.98283 12.7906 2.32939 13.2719 2.64876 13.5719C2.96814 13.875 3.22814 13.9594 3.36564 13.9156C3.54376 13.8594 3.71876 13.8031 3.89064 13.7469C2.80001 12.4281 1.98033 11.1188 1.8097 9.475Z" fill="white"/>
</svg>
