<svg width="16" height="16" viewBox="0 0 16 16" fill="none" xmlns="http://www.w3.org/2000/svg">
<g clip-path="url(#clip0_330_22)">
<path d="M15.4733 0.482849L9.90406 0.489255C9.90406 0.489255 10.1515 1.27722 10.3932 1.60269C10.8043 2.15619 12.4962 1.68869 12.2616 2.71876H13.9929C14.2115 2.50063 14.437 2.22307 14.4636 1.98626C14.496 1.69854 13.9894 1.48232 14.0796 1.20716C14.2427 0.709662 15.4733 0.482849 15.4733 0.482849ZM8 0.884724L0.951719 7.46313L1.97253 8.14366L8 2.61844L14.0275 8.14366L15.0483 7.4631L8 0.884724ZM12.2812 3.28126V4.1111L13.7188 5.45276V3.28126H12.2812ZM8 3.38154L6.54119 4.71876H9.45881L8 3.38154ZM5.92756 5.28126L4.90484 6.21876H8.71875V5.28126H5.92756ZM9.28125 5.28126V6.21876H11.0952L10.0724 5.28126H9.28125ZM4.29119 6.78126L3.21106 7.77138L5.21875 7.76238V6.78126H4.29119ZM5.78125 6.78126V7.75988L12.7425 7.72882L11.7088 6.78126H5.78125ZM13.3532 8.28863L2.59437 8.33666L2.02747 8.85635L1.99834 8.83691C1.99095 8.96965 1.95683 9.09952 1.89803 9.21876H14.102C14.0432 9.09953 14.009 8.96965 14.0016 8.83691L13.9725 8.85632L13.3532 8.28863ZM1 8.34376C0.755031 8.34376 0.5625 8.53629 0.5625 8.78126C0.5625 9.02622 0.755031 9.21876 1 9.21876C1.24497 9.21876 1.4375 9.02622 1.4375 8.78126C1.4375 8.53629 1.24497 8.34376 1 8.34376ZM15 8.34376C14.755 8.34376 14.5625 8.53629 14.5625 8.78126C14.5625 9.02622 14.755 9.21876 15 9.21876C15.245 9.21876 15.4375 9.02622 15.4375 8.78126C15.4375 8.53629 15.245 8.34376 15 8.34376ZM1.86425 9.78126C1.94701 9.92253 1.99341 10.0821 1.9993 10.2458C2.00519 10.4094 1.97039 10.5719 1.898 10.7188H3.21875V9.78126H1.86425ZM3.78125 9.78126V12.2188H5.21875V9.78126H3.78125ZM5.78125 9.78126V12.2188H7.21875V9.78126H5.78125ZM7.78125 9.78126V10.7188H8.71875V9.78126H7.78125ZM9.28125 9.78126V15.2188H12.2188V9.78126H9.28125ZM12.7812 9.78126V10.7188H14.102C14.0296 10.5719 13.9948 10.4094 14.0007 10.2458C14.0066 10.0821 14.053 9.92253 14.1357 9.78126H12.7812ZM1 9.84376C0.755031 9.84376 0.5625 10.0363 0.5625 10.2813C0.5625 10.5262 0.755031 10.7188 1 10.7188C1.24497 10.7188 1.4375 10.5262 1.4375 10.2813C1.4375 10.0363 1.24497 9.84376 1 9.84376ZM15 9.84376C14.755 9.84376 14.5625 10.0363 14.5625 10.2813C14.5625 10.5262 14.755 10.7188 15 10.7188C15.245 10.7188 15.4375 10.5262 15.4375 10.2813C15.4375 10.0363 15.245 9.84376 15 9.84376ZM1.86425 11.2813C1.94701 11.4225 1.99341 11.5821 1.9993 11.7458C2.00519 11.9094 1.97039 12.0719 1.898 12.2188H3.21875V11.2813H1.86425ZM7.78125 11.2813V12.2188H8.71875V11.2813H7.78125ZM12.7812 11.2813V12.2188H14.102C14.0296 12.0719 13.9948 11.9094 14.0007 11.7458C14.0066 11.5821 14.053 11.4225 14.1357 11.2813H12.7812ZM1 11.3438C0.755031 11.3438 0.5625 11.5363 0.5625 11.7813C0.5625 12.0262 0.755031 12.2188 1 12.2188C1.24497 12.2188 1.4375 12.0262 1.4375 11.7813C1.4375 11.5363 1.24497 11.3438 1 11.3438ZM15 11.3438C14.755 11.3438 14.5625 11.5363 14.5625 11.7813C14.5625 12.0262 14.755 12.2188 15 12.2188C15.245 12.2188 15.4375 12.0262 15.4375 11.7813C15.4375 11.5363 15.245 11.3438 15 11.3438ZM11 12.2188H11.6875V12.7813H11V12.2188ZM1.86425 12.7813C1.94701 12.9225 1.99341 13.0821 1.9993 13.2458C2.00519 13.4094 1.97039 13.5719 1.898 13.7188H8.71875V12.7813H1.86425ZM12.7812 12.7813V13.7188H14.102C14.0296 13.5719 13.9948 13.4094 14.0007 13.2458C14.0066 13.0821 14.053 12.9225 14.1357 12.7813H12.7812ZM1 12.8438C0.755031 12.8438 0.5625 13.0363 0.5625 13.2813C0.5625 13.5262 0.755031 13.7188 1 13.7188C1.24497 13.7188 1.4375 13.5262 1.4375 13.2813C1.4375 13.0363 1.24497 12.8438 1 12.8438ZM15 12.8438C14.755 12.8438 14.5625 13.0363 14.5625 13.2813C14.5625 13.5262 14.755 13.7188 15 13.7188C15.245 13.7188 15.4375 13.5262 15.4375 13.2813C15.4375 13.0363 15.245 12.8438 15 12.8438ZM1 14.2813C0.755031 14.2813 0.5625 14.4738 0.5625 14.7188C0.5625 14.9637 0.755031 15.1563 1 15.1563C1.24497 15.1563 1.4375 14.9637 1.4375 14.7188C1.4375 14.4738 1.24497 14.2813 1 14.2813ZM1.898 14.2813C1.97039 14.4281 2.00519 14.5906 1.9993 14.7543C1.99341 14.9179 1.94701 15.0775 1.86425 15.2188H2.71875V14.2813H1.898ZM3.28125 14.2813V15.2188H8.71875V14.2813H3.28125ZM12.7812 14.2813V15.2188H14.1357C14.053 15.0775 14.0066 14.9179 14.0007 14.7543C13.9948 14.5906 14.0296 14.4281 14.102 14.2813H12.7812ZM15 14.2813C14.755 14.2813 14.5625 14.4738 14.5625 14.7188C14.5625 14.9637 14.755 15.1563 15 15.1563C15.245 15.1563 15.4375 14.9637 15.4375 14.7188C15.4375 14.4738 15.245 14.2813 15 14.2813Z" fill="white"/>
</g>
<defs>
<clipPath id="clip0_330_22">
<rect width="16" height="16" fill="white"/>
</clipPath>
</defs>
</svg>
