<svg width="16" height="16" viewBox="0 0 16 16" fill="none" xmlns="http://www.w3.org/2000/svg">
<path d="M7.78999 0.599611V0.607423C7.22393 1.81474 6.38171 2.86867 5.3623 3.8242L6.54105 3.70114L4.93652 5.73339L5.71184 5.4863L4.66109 7.20114L5.17765 7.50874L3.13859 10.3886L4.26655 10.3945L2.65137 13.0068L4.63768 12.7529L5.01268 13.7558L7.08887 12.9658L6.73437 15.415H8.38868L8.18456 13.2832L9.37793 13.7959L9.69627 13.0214L11.0801 13.6767L12.8428 13.0283L11.6846 11.0254L11.2959 10.954L11.5078 11.4912L11.7529 12.1133L11.1298 11.8701L9.53902 11.248V12.3652L9.09665 12.0967L6.92868 10.7842L6.25384 11.4482L5.6904 12.0029L5.75774 11.2148L5.82415 10.4443L6.39252 10.4931L6.68059 10.209L6.84277 10.0498L7.03709 10.167L8.95506 11.3281V10.3935L9.35349 10.5488L10.7197 11.083L10.5606 10.6796L10.3681 10.1904L10.8848 10.2851L12.3057 10.5459L11.2266 9.32899L10.4883 9.76752L10.2793 9.89152L10.1192 9.70795L9.67293 9.1943L9.67974 9.23233L9.10456 9.33295L8.91799 8.26067L8.73831 7.22745L9.42581 8.01949L10.4004 9.14058L11.7725 8.32714C11.0016 7.71642 10.5379 7.2687 10.2207 6.8017L10.2461 7.1972L10.3077 8.16595L9.72174 7.39252L8.64456 5.97261L7.94924 7.43552L7.51662 8.34567L7.39652 7.34467L7.28715 6.44333L7.80377 6.38183L8.32327 5.28902L8.52934 4.85542L8.81934 5.2373L9.60059 6.26655L9.57715 5.90624L9.54884 5.45999L9.96977 5.61424L10.6816 5.87499L9.86515 4.77636L8.12006 3.87402L7.84074 4.50583L7.53899 5.19136L7.29774 4.48236L7.06437 3.79877L7.59468 3.61814L7.71087 3.35445L7.83587 3.0693L8.11224 3.21283L9.65521 4.01064L10.1698 3.83683C8.81293 2.76464 8.15012 1.68414 7.78993 0.599548L7.78999 0.599611Z" fill="white"/>
</svg>
