<svg width="16" height="16" viewBox="0 0 16 16" fill="none" xmlns="http://www.w3.org/2000/svg">
<g clip-path="url(#clip0_330_14)">
<path d="M9.08684 0.298859L8.47746 2.56542L10.666 3.40333L9.43843 4.67873C8.95343 4.94298 8.59146 4.93561 8.27249 4.74511C8.27205 4.74486 8.27187 4.74436 8.27146 4.74417L8.1123 4.39842L9.41993 3.35155L7.87696 3.88967L6.94337 1.87011L7.39355 0.88964L6.4043 1.59464V1.59376L3.5498 0.965827L6.38574 2.14845L6.74605 2.92776L4.80074 3.34183L3.7598 2.04101L4.25293 3.45801L3.43555 3.63186L1.57027 2.43261L2.39352 3.37205L1.14646 4.37011L2.7724 3.8037L3.20699 4.2988L5.72459 3.76948L5.62396 5.13667L6.2734 3.65423L7.01265 3.49898L7.74409 5.08098C7.80284 5.39201 7.82896 5.67867 7.8154 5.92864L6.40327 5.37686L7.6904 6.48817C7.49984 6.89264 7.08821 7.05817 6.3984 6.85048L4.0439 5.28892L3.16984 5.86798L2.65718 4.70101L2.76268 6.13851L2.46487 6.3358L0.428711 4.7938L2.35059 7.13561L4.0439 6.01255C4.38452 6.24661 4.72724 6.47833 5.07027 6.7088L4.69137 8.01255L3.16793 8.64442L5.16699 8.52623L5.59177 7.05655C5.76977 7.17489 5.9474 7.29342 6.12593 7.41098C7.67396 9.78223 7.90946 13.3272 6.18749 12.9325C6.47143 14.1398 5.42896 15.0545 4.47362 15.4657H5.34955L5.34862 15.4637C6.13665 15.2151 6.6054 14.8146 7.09568 14.0321C7.09921 14.5747 6.86443 15.0741 6.44334 15.4657H8.50584C7.95315 14.946 7.65084 14.0973 8.03515 12.6991C8.11184 13.9803 8.49671 14.953 9.69627 15.4648V15.4657H10.5078C8.34827 14.2878 7.85346 11.9839 8.9424 9.76164L10.0761 8.4032L12.0186 8.94227L10.8252 8.18352L11.3926 6.75476L10.3877 7.90517L9.94334 7.62192L9.51077 8.13848C9.28337 7.89339 9.20968 7.46739 9.26765 6.93833C9.33246 6.34601 9.56124 5.67489 9.80274 5.18051L10.3008 4.66786L11.5986 5.47942L12.0176 7.26942L14.5098 7.95498L12.5312 6.85064L12.205 5.41995L13.0478 5.02639L14.4121 6.53126L13.5771 4.7793L13.8837 4.63576L15.4609 4.54592L14.3779 4.13967L14.9853 2.50873L13.7236 4.06639L11.8672 4.93264L10.7334 4.22264L11.4873 3.44626L12.8135 2.38476L11.1788 2.95414L11.0098 2.8887L12.2734 0.415952L10.4589 2.67573L9.08687 2.14642V0.298859H9.08684ZM8.66496 7.32033C8.6729 7.80673 8.79709 8.26895 9.13371 8.58889L8.7529 9.04395C8.45749 8.62442 8.47018 8.0102 8.66499 7.32033H8.66496ZM6.98434 7.76658C7.8184 8.31933 8.2308 9.64877 7.72652 10.5352C7.61071 9.75748 7.32846 8.69511 6.92377 7.87305L6.98434 7.76661V7.76658Z" fill="white"/>
</g>
<defs>
<clipPath id="clip0_330_14">
<rect width="16" height="16" fill="white"/>
</clipPath>
</defs>
</svg>
