<svg width="16" height="16" viewBox="0 0 16 16" fill="none" xmlns="http://www.w3.org/2000/svg">
<path d="M9.99992 10.1733V8.66667H7.33325L9.99992 6H7.99992L9.99992 4H8.66658L10.6666 2L12.6666 4H11.3333L13.3333 6H11.3333L13.9999 8.66667H11.3333V10.5067C12.7533 10.98 13.7866 11.78 13.9999 12.6667C12.8666 12.58 11.7466 12.36 10.6666 12C9.85992 12.4067 8.91325 12.6667 7.99992 12.6667C7.13992 12.6667 6.11325 12.3867 5.33325 12C4.24659 12.36 3.14659 12.58 1.99992 12.6667C2.35992 11.18 4.93325 10 7.99992 10C8.69992 10 9.37325 10.06 9.99992 10.1733ZM5.33325 12.6667C5.33325 12.6667 3.33325 13.3333 1.33325 13.3333V14.6667C3.33325 14.6667 5.33325 14 5.33325 14C5.33325 14 6.66658 14.6667 7.99992 14.6667C9.33325 14.6667 10.6666 14 10.6666 14C10.6666 14 12.6666 14.6667 14.6666 14.6667V13.3333C12.6666 13.3333 10.6666 12.6667 10.6666 12.6667C10.6666 12.6667 9.33325 13.3333 7.99992 13.3333C6.66658 13.3333 5.33325 12.6667 5.33325 12.6667Z" fill="white"/>
</svg>
